<mxfile host="app.diagrams.net" agent="Mozilla/5.0 (Windows NT 10.0; Win64; x64) AppleWebKit/537.36 (KHTML, like Gecko) Chrome/129.0.0.0 Safari/537.36" version="24.7.17">
  <diagram name="Page-1" id="6cQfmiuDnhXsfZe1dcpV">
    <mxGraphModel dx="2625" dy="1393" grid="1" gridSize="10" guides="1" tooltips="1" connect="1" arrows="1" fold="1" page="1" pageScale="1" pageWidth="850" pageHeight="1100" math="0" shadow="0">
      <root>
        <mxCell id="0" />
        <mxCell id="1" parent="0" />
        <mxCell id="fqztRPGoMSD-JsP0m5d8-2" value="Serial.begin (9600)" style="whiteSpace=wrap;strokeWidth=2;" vertex="1" parent="1">
          <mxGeometry x="355" y="228" width="184" height="48" as="geometry" />
        </mxCell>
        <mxCell id="fqztRPGoMSD-JsP0m5d8-3" value="Loop" style="whiteSpace=wrap;strokeWidth=2;" vertex="1" parent="1">
          <mxGeometry x="400" y="327" width="94" height="48" as="geometry" />
        </mxCell>
        <mxCell id="fqztRPGoMSD-JsP0m5d8-4" value="nilaipot = analogRead (pinpot)" style="whiteSpace=wrap;strokeWidth=2;" vertex="1" parent="1">
          <mxGeometry x="262" y="425" width="214" height="66" as="geometry" />
        </mxCell>
        <mxCell id="fqztRPGoMSD-JsP0m5d8-5" value="servo = nilaipot * (255.0 / 1023.0)" style="whiteSpace=wrap;strokeWidth=2;" vertex="1" parent="1">
          <mxGeometry x="250" y="541" width="239" height="66" as="geometry" />
        </mxCell>
        <mxCell id="fqztRPGoMSD-JsP0m5d8-6" value="Serial.println (servo)" style="whiteSpace=wrap;strokeWidth=2;" vertex="1" parent="1">
          <mxGeometry x="271" y="657" width="197" height="48" as="geometry" />
        </mxCell>
        <mxCell id="fqztRPGoMSD-JsP0m5d8-7" value="analogWrite (LeD, servo)" style="whiteSpace=wrap;strokeWidth=2;" vertex="1" parent="1">
          <mxGeometry x="257" y="756" width="226" height="48" as="geometry" />
        </mxCell>
        <mxCell id="fqztRPGoMSD-JsP0m5d8-8" value="delay 10" style="whiteSpace=wrap;strokeWidth=2;" vertex="1" parent="1">
          <mxGeometry x="386" y="854" width="121" height="48" as="geometry" />
        </mxCell>
        <mxCell id="fqztRPGoMSD-JsP0m5d8-10" value="" style="curved=1;startArrow=none;endArrow=block;exitX=0.5;exitY=1.02;entryX=0.5;entryY=0;rounded=0;" edge="1" parent="1" source="fqztRPGoMSD-JsP0m5d8-2" target="fqztRPGoMSD-JsP0m5d8-3">
          <mxGeometry relative="1" as="geometry">
            <Array as="points" />
          </mxGeometry>
        </mxCell>
        <mxCell id="fqztRPGoMSD-JsP0m5d8-11" value="" style="curved=1;startArrow=none;endArrow=block;exitX=0.09;exitY=1;entryX=0.5;entryY=0;rounded=0;" edge="1" parent="1" source="fqztRPGoMSD-JsP0m5d8-3" target="fqztRPGoMSD-JsP0m5d8-4">
          <mxGeometry relative="1" as="geometry">
            <Array as="points">
              <mxPoint x="369" y="400" />
            </Array>
          </mxGeometry>
        </mxCell>
        <mxCell id="fqztRPGoMSD-JsP0m5d8-12" value="" style="curved=1;startArrow=none;endArrow=block;exitX=0.5;exitY=1;entryX=0.5;entryY=0;rounded=0;" edge="1" parent="1" source="fqztRPGoMSD-JsP0m5d8-4" target="fqztRPGoMSD-JsP0m5d8-5">
          <mxGeometry relative="1" as="geometry">
            <Array as="points" />
          </mxGeometry>
        </mxCell>
        <mxCell id="fqztRPGoMSD-JsP0m5d8-13" value="" style="curved=1;startArrow=none;endArrow=block;exitX=0.5;exitY=1;entryX=0.5;entryY=0;rounded=0;" edge="1" parent="1" source="fqztRPGoMSD-JsP0m5d8-5" target="fqztRPGoMSD-JsP0m5d8-6">
          <mxGeometry relative="1" as="geometry">
            <Array as="points" />
          </mxGeometry>
        </mxCell>
        <mxCell id="fqztRPGoMSD-JsP0m5d8-14" value="" style="curved=1;startArrow=none;endArrow=block;exitX=0.5;exitY=1.01;entryX=0.5;entryY=-0.01;rounded=0;" edge="1" parent="1" source="fqztRPGoMSD-JsP0m5d8-6" target="fqztRPGoMSD-JsP0m5d8-7">
          <mxGeometry relative="1" as="geometry">
            <Array as="points" />
          </mxGeometry>
        </mxCell>
        <mxCell id="fqztRPGoMSD-JsP0m5d8-15" value="" style="curved=1;startArrow=none;endArrow=block;exitX=0.5;exitY=1;entryX=0.19;entryY=0;rounded=0;" edge="1" parent="1" source="fqztRPGoMSD-JsP0m5d8-7" target="fqztRPGoMSD-JsP0m5d8-8">
          <mxGeometry relative="1" as="geometry">
            <Array as="points">
              <mxPoint x="369" y="829" />
            </Array>
          </mxGeometry>
        </mxCell>
        <mxCell id="fqztRPGoMSD-JsP0m5d8-16" value="" style="curved=1;startArrow=none;endArrow=block;exitX=0.82;exitY=0;entryX=0.9;entryY=1;rounded=0;" edge="1" parent="1" source="fqztRPGoMSD-JsP0m5d8-8" target="fqztRPGoMSD-JsP0m5d8-3">
          <mxGeometry relative="1" as="geometry">
            <Array as="points">
              <mxPoint x="524" y="829" />
              <mxPoint x="524" y="400" />
            </Array>
          </mxGeometry>
        </mxCell>
        <mxCell id="fqztRPGoMSD-JsP0m5d8-18" value="" style="edgeStyle=orthogonalEdgeStyle;rounded=0;orthogonalLoop=1;jettySize=auto;html=1;" edge="1" parent="1" source="fqztRPGoMSD-JsP0m5d8-17" target="fqztRPGoMSD-JsP0m5d8-2">
          <mxGeometry relative="1" as="geometry" />
        </mxCell>
        <mxCell id="fqztRPGoMSD-JsP0m5d8-17" value="Mulai" style="ellipse;whiteSpace=wrap;html=1;" vertex="1" parent="1">
          <mxGeometry x="387" y="120" width="120" height="80" as="geometry" />
        </mxCell>
      </root>
    </mxGraphModel>
  </diagram>
</mxfile>
